<?xml version="1.0" encoding="UTF-8" standalone="no"?>
<svg
   width="47.999672"
   height="44.000027"
   viewBox="0 0 47.999672 44.000027"
   fill="none"
   version="1.1"
   id="svg42"
   sodipodi:docname="logo.svg"
   inkscape:version="1.1.1 (3bf5ae0d25, 2021-09-20)"
   xmlns:inkscape="http://www.inkscape.org/namespaces/inkscape"
   xmlns:sodipodi="http://sodipodi.sourceforge.net/DTD/sodipodi-0.dtd"
   xmlns="http://www.w3.org/2000/svg"
   xmlns:svg="http://www.w3.org/2000/svg">
  <defs
     id="defs46" />
  <sodipodi:namedview
     id="namedview44"
     pagecolor="#505050"
     bordercolor="#eeeeee"
     borderopacity="1"
     inkscape:pageshadow="0"
     inkscape:pageopacity="0"
     inkscape:pagecheckerboard="0"
     showgrid="false"
     inkscape:zoom="6.4120879"
     inkscape:cx="29.553556"
     inkscape:cy="18.246787"
     inkscape:window-width="1920"
     inkscape:window-height="1057"
     inkscape:window-x="-8"
     inkscape:window-y="-8"
     inkscape:window-maximized="1"
     inkscape:current-layer="svg42" />
  <path
     d="m 14.642,1.84962 -4.5749,8.73648 c -0.2954203,0.564 -0.1008903,1.2693 0.4375,1.5864 l 7.1635,4.2197 c 0.5459,0.3215 1.2398,0.1238 1.5502,-0.4418 L 27.9745,6.44684e-4 H 17.6401 c -1.2509,0 -2.4015,0.709528316 -2.9981,1.848975316 z"
     fill="#29a361"
     id="path16"
     inkscape:export-filename="C:\Users\alca0\Desktop\DEV\ROCKETSEAT\NLW-1\web\public\path16.png"
     inkscape:export-xdpi="128.00087"
     inkscape:export-ydpi="128.00087" />
  <path
     d="m 27.974,0 -8.7558,15.95 c -0.311,0.5654 -1.0045,0.7636 -1.5501,0.4423 l -1.8698,-1.101 c 0.4559,0.0761 0.9301,-0.141 1.1715,-0.5814 L 25.0468,0 Z"
     fill="#248f55"
     id="path18"
     inkscape:export-filename="C:\Users\alca0\Desktop\DEV\ROCKETSEAT\NLW-1\web\public\path16.png"
     inkscape:export-xdpi="128.00087"
     inkscape:export-ydpi="128.00087" />
  <path
     d="M 37.5549,8.45922 34.3995,1.94901 C 33.8206,0.754574 32.641,6.44684e-4 31.3513,6.44684e-4 H 22.228 L 29.2328,12.3166 c -0.0229,0.0107 -0.046,0.0214 -0.069,0.0321 -0.4406,0.2055 -0.4226,0.8606 0.0285,1.0401 l 6.0487,2.4072 c 0.2803,0.1116 0.5948,-0.0335 0.7024,-0.3239 L 38.2751,9.17953 C 38.4475,8.71406 37.9948,8.26491 37.5549,8.45922 Z"
     fill="#34cb79"
     id="path20"
     inkscape:export-filename="C:\Users\alca0\Desktop\DEV\ROCKETSEAT\NLW-1\web\public\path16.png"
     inkscape:export-xdpi="128.00087"
     inkscape:export-ydpi="128.00087" />
  <path
     d="m 38.2751,9.17899 -2.3324,6.29251 c -0.1071,0.2912 -0.4221,0.4364 -0.7021,0.3243 L 33.4104,15.0671 35.5922,9.17899 C 35.7162,8.84506 35.5181,8.51988 35.2339,8.43458 34.9632,8.35326 34.7321,8.16954 34.6056,7.90858 L 31.7165,1.94875 C 31.1379,0.754706 29.9587,0 28.6685,0 h 2.6829 c 1.2893,0 2.4685,0.754706 3.048,1.94875 l 3.1552,6.5107 c 0.4405,-0.19421 0.8925,0.25416 0.7205,0.71954 z"
     fill="#2fb86e"
     id="path22"
     inkscape:export-filename="C:\Users\alca0\Desktop\DEV\ROCKETSEAT\NLW-1\web\public\path16.png"
     inkscape:export-xdpi="128.00087"
     inkscape:export-ydpi="128.00087" />
  <path
     d="m 31.4594,33.5593 c -0.085,-0.3615 -0.535,-0.5163 -0.8096,-0.2318 l -4.7276,4.8993 c -0.1886,0.1955 -0.1886,0.5123 0,0.7077 l 4.7458,4.9181 c 0.2728,0.2827 0.7182,0.1318 0.8078,-0.2235 h 6.979 c 1.2849,0 2.4608,-0.7482 3.0421,-1.9357 l 3.9822,-8.1342 H 31.4594 Z"
     fill="#29a361"
     id="path24"
     inkscape:export-filename="C:\Users\alca0\Desktop\DEV\ROCKETSEAT\NLW-1\web\public\path16.png"
     inkscape:export-xdpi="128.00087"
     inkscape:export-ydpi="128.00087" />
  <path
     d="m 37.3508,33.5594 2.2629,3.5485 c 0.5116,0.8022 0.5682,1.8274 0.1483,2.6849 l -0.9307,1.9007 c -0.5804,1.1871 -1.7568,1.9358 -3.0413,1.9358 h 2.6647 c 1.2845,0 2.4608,-0.7487 3.0423,-1.9358 l 3.9819,-8.134 h -8.1281 z"
     fill="#248f55"
     id="path26"
     inkscape:export-filename="C:\Users\alca0\Desktop\DEV\ROCKETSEAT\NLW-1\web\public\path16.png"
     inkscape:export-xdpi="128.00087"
     inkscape:export-ydpi="128.00087" />
  <path
     d="m 21.9354,42.6939 v -8.6583 c 0,-0.6507 -0.5091,-1.1784 -1.1371,-1.1784 H 2.0678697 l 4.82025,9.1709 c 0.59747,1.1368 1.74657,1.8442 2.9956,1.8442 H 20.7983 c 0.6279,0 1.1371,-0.5275 1.1371,-1.1784 z"
     fill="#29a361"
     id="path28"
     inkscape:export-filename="C:\Users\alca0\Desktop\DEV\ROCKETSEAT\NLW-1\web\public\path16.png"
     inkscape:export-xdpi="128.00087"
     inkscape:export-ydpi="128.00087" />
  <path
     d="M 10.0115,32.858 5.8518097,40.0573 2.0678697,32.858 Z"
     fill="#248f55"
     id="path30"
     inkscape:export-filename="C:\Users\alca0\Desktop\DEV\ROCKETSEAT\NLW-1\web\public\path16.png"
     inkscape:export-xdpi="128.00087"
     inkscape:export-ydpi="128.00087" />
  <path
     d="m 21.935,34.0358 v 8.6586 c 0,0.6506 -0.509,1.178 -1.1367,1.178 h -2.9834 c 0.6278,0 1.1368,-0.5274 1.1368,-1.178 v -8.6586 c 0,-0.6506 -0.509,-1.178 -1.1368,-1.178 h 2.9834 c 0.6277,-10e-5 1.1367,0.5274 1.1367,1.178 z"
     fill="#248f55"
     id="path32"
     inkscape:export-filename="C:\Users\alca0\Desktop\DEV\ROCKETSEAT\NLW-1\web\public\path16.png"
     inkscape:export-xdpi="128.00087"
     inkscape:export-ydpi="128.00087" />
  <path
     d="M 12.7847,25.2066 11.9436,18.6467 C 11.902,18.3226 11.6148,18.0949 11.3021,18.1379 l -6.3542603,0.875 c -0.4785,0.0659 -0.65682,0.6691 -0.32907,1.0047 l -4.01024797,5.9901 c -0.735281,1.0983 -0.809906,2.5323 -0.192937,3.7061 L 4.7795497,38.0167 11.8654,25.7507 c 0.0025,0.0019 0.0049,0.0039 0.0075,0.0059 0.4044,0.3181 0.9786,-0.0284 0.9118,-0.55 z"
     fill="#34cb79"
     id="path34"
     inkscape:export-filename="C:\Users\alca0\Desktop\DEV\ROCKETSEAT\NLW-1\web\public\path16.png"
     inkscape:export-xdpi="128.00087"
     inkscape:export-ydpi="128.00087" />
  <path
     d="m 11.8725,25.7566 c -0.002,-0.0021 -0.0048,-0.004 -0.0068,-0.006 l -7.0860903,12.2657 -1.45734,-2.7725 5.7675,-9.9852 0.15993,-0.277 c 0.08747,-0.1514 0.25838,-0.2168 0.42553,-0.1832 8.5e-4,2e-4 0.00169,3e-4 0.00254,5e-4 C 10.0334,24.8646 10.3981,24.5576 10.3435,24.1362 L 9.6046397,18.3712 11.3015,18.138 c 0.313,-0.043 0.6008,0.1852 0.6423,0.5084 l 0.8412,6.5608 c 0.0668,0.5213 -0.5079,0.8676 -0.9125,0.5494 z"
     fill="#2fb86e"
     id="path36"
     inkscape:export-filename="C:\Users\alca0\Desktop\DEV\ROCKETSEAT\NLW-1\web\public\path16.png"
     inkscape:export-xdpi="128.00087"
     inkscape:export-ydpi="128.00087" />
  <path
     d="m 47.3959,25.5569 -5.4856,-8.2372 c -0.3364,-0.5053 -0.991,-0.6582 -1.5041,-0.3513 l -7.1488,4.2751 c -0.5674,0.3393 -0.7415,1.104 -0.3803,1.6704 l 10.0778,15.8012 4.6757,-9.5508 c 0.5659,-1.156 0.4759,-2.5404 -0.2347,-3.6074 z"
     fill="#34cb79"
     id="path38"
     inkscape:export-filename="C:\Users\alca0\Desktop\DEV\ROCKETSEAT\NLW-1\web\public\path16.png"
     inkscape:export-xdpi="128.00087"
     inkscape:export-ydpi="128.00087" />
  <path
     d="m 47.6305,29.1645 -4.6764,9.5503 -1.5684,-2.4602 3.4711,-7.0902 c 0.5659,-1.156 0.4761,-2.5402 -0.2347,-3.6072 l -5.2915,-7.9449 1.0758,-0.6436 c 0.5129,-0.3073 1.1677,-0.1542 1.5038,0.3513 l 5.4857,8.2373 c 0.7107,1.067 0.8005,2.4512 0.2346,3.6072 z"
     fill="#2fb86e"
     id="path40"
     inkscape:export-filename="C:\Users\alca0\Desktop\DEV\ROCKETSEAT\NLW-1\web\public\path16.png"
     inkscape:export-xdpi="128.00087"
     inkscape:export-ydpi="128.00087" />
</svg>
